<svg xmlns="http://www.w3.org/2000/svg" viewBox="0 0 280 420" fill="none">
  <rect width="280" height="420" rx="20" fill="#030712"/>
  <circle cx="60" cy="80" r="90" fill="#5eead4" opacity="0.2" filter="url(#b)"/>
  <circle cx="240" cy="200" r="70" fill="#a78bfa" opacity="0.18" filter="url(#b)"/>
  <circle cx="120" cy="360" r="60" fill="#fbbf24" opacity="0.15" filter="url(#b)"/>
  <rect x="28" y="48" width="224" height="300" rx="18" fill="rgba(255,255,255,0.06)" stroke="rgba(255,255,255,0.12)"/>
  <rect x="48" y="72" width="120" height="10" rx="3" fill="rgba(148,163,184,0.35)"/>
  <rect x="48" y="92" width="184" height="8" rx="2" fill="rgba(148,163,184,0.22)"/>
  <rect x="48" y="106" width="160" height="8" rx="2" fill="rgba(148,163,184,0.18)"/>
  <rect x="48" y="138" width="4" height="36" rx="1" fill="#5eead4"/>
  <rect x="58" y="142" width="170" height="6" rx="2" fill="rgba(148,163,184,0.25)"/>
  <rect x="48" y="188" width="184" height="6" rx="3" fill="#1e293b"/>
  <rect x="48" y="188" width="150" height="6" rx="3" fill="url(#g)"/>
  <rect x="48" y="210" width="184" height="40" rx="10" fill="rgba(16,185,129,0.85)"/>
  <defs>
    <filter id="b" x="-50%" y="-50%" width="200%" height="200%">
      <feGaussianBlur stdDeviation="24"/>
    </filter>
    <linearGradient id="g" x1="0" y1="0" x2="1" y2="0">
      <stop offset="0%" stop-color="#5eead4"/>
      <stop offset="100%" stop-color="#fbbf24"/>
    </linearGradient>
  </defs>
</svg>
